<?xml version="1.0" standalone="no"?>
<!DOCTYPE svg PUBLIC "-//W3C//DTD SVG 20010904//EN"
 "http://www.w3.org/TR/2001/REC-SVG-20010904/DTD/svg10.dtd">
<svg version="1.0" xmlns="http://www.w3.org/2000/svg"
 width="500.000000pt" height="500.000000pt" viewBox="0 0 500.000000 500.000000"
 preserveAspectRatio="xMidYMid meet">
<metadata>
Created by potrace 1.16, written by Peter Selinger 2001-2019
</metadata>
<g transform="translate(0.000000,500.000000) scale(0.100000,-0.100000)"
fill="#000000" stroke="none">
<path d="M0 2500 l0 -2500 2500 0 2500 0 0 2500 0 2500 -2500 0 -2500 0 0
-2500z m2559 984 c9 -8 -6 -13 -99 -34 -100 -21 -242 -65 -180 -55 116 19 241
35 282 35 26 0 50 5 53 10 3 6 15 10 27 10 16 0 19 -5 16 -25 -5 -24 -4 -24
51 -19 79 9 209 -18 300 -61 75 -36 146 -83 138 -91 -3 -3 -56 11 -118 30
-155 47 -220 56 -119 18 42 -16 116 -48 164 -71 49 -22 96 -40 104 -39 22 4
41 -30 23 -41 -17 -11 -41 -3 -41 13 0 6 -24 22 -53 35 -137 61 -148 63 -65
10 72 -46 175 -136 227 -198 68 -82 40 -71 -43 17 -42 43 -103 99 -136 123
-68 50 -180 119 -192 119 -4 0 21 -28 56 -63 64 -64 150 -193 139 -210 -3 -5
-46 32 -97 82 -99 98 -203 185 -281 237 -63 41 -133 54 -284 53 l-116 -1 70
-14 c76 -16 261 -103 254 -119 -2 -5 -8 -9 -12 -7 -56 18 -228 57 -327 73
-156 26 -222 22 -313 -19 -72 -33 -191 -102 -185 -107 2 -2 30 5 63 16 70 24
275 39 275 21 0 -7 -12 -14 -27 -18 -90 -19 -224 -62 -338 -106 -108 -43 -137
-59 -175 -97 -42 -42 -99 -122 -143 -202 -10 -17 -20 -29 -24 -26 -6 7 47 105
82 153 13 17 38 68 55 113 38 98 103 188 183 252 65 52 175 114 185 105 3 -4
-40 -49 -96 -102 -56 -52 -111 -109 -124 -127 -18 -27 -14 -25 28 14 28 25 95
79 150 119 54 40 106 82 115 93 18 23 49 17 49 -8 0 -13 6 -11 33 8 100 76
268 122 402 110 33 -2 62 -6 64 -9z m832 -683 c20 -16 23 -27 22 -72 -1 -77
-41 -183 -71 -187 -25 -4 -26 -3 -11 35 6 15 17 60 24 98 12 61 12 73 -2 94
-57 88 -400 -111 -659 -381 -145 -152 -213 -253 -229 -338 -5 -29 -2 -39 19
-59 21 -20 35 -23 88 -23 118 0 339 56 487 124 37 17 71 26 80 22 11 -5 -8
-18 -64 -45 -125 -59 -273 -103 -440 -129 -137 -22 -225 13 -225 88 0 134 264
444 542 635 70 49 199 118 265 141 58 22 146 20 174 -3z m-1114 -40 c55 -15
88 -43 79 -66 -6 -17 -8 -17 -29 3 -12 11 -49 28 -82 38 -118 34 -398 1 -661
-77 -389 -115 -613 -262 -648 -426 -15 -65 48 -155 159 -228 208 -138 320
-203 332 -193 16 13 46 -9 39 -29 -3 -8 12 -29 34 -49 22 -20 40 -44 40 -54 0
-50 -130 -87 -262 -76 -119 10 -156 40 -120 98 29 47 98 80 159 76 34 -2 48
-7 48 -18 0 -11 -11 -14 -47 -11 -54 3 -99 -18 -119 -57 -12 -21 -11 -26 6
-38 20 -15 44 -17 169 -15 81 2 116 12 116 35 0 17 -51 62 -121 109 -30 19
-120 77 -201 130 -163 106 -230 163 -259 219 -100 195 220 446 736 577 253 63
511 85 632 52z m1396 -148 c3 -5 -8 -66 -23 -138 -40 -188 -44 -225 -25 -225
9 0 27 12 41 28 82 92 93 102 118 102 53 0 45 -56 -11 -75 -37 -12 -42 -29 -9
-33 18 -2 38 9 71 39 48 44 63 34 23 -16 -34 -44 -135 -74 -153 -45 -3 5 -22
-2 -42 -15 -44 -30 -69 -32 -83 -4 -10 18 -14 19 -28 7 -51 -42 -132 -51 -156
-17 -8 12 -12 27 -9 34 3 10 -2 12 -16 8 -12 -3 -21 -1 -21 6 0 24 -33 -5 -61
-54 -24 -42 -36 -54 -62 -59 -58 -12 -69 -11 -79 4 -14 22 8 100 29 100 13 0
14 -7 9 -40 -3 -22 -3 -40 1 -40 19 1 54 42 72 82 18 42 19 43 70 45 36 2 54
-2 57 -11 4 -10 13 -5 34 15 28 29 73 39 85 19 3 -5 -3 -10 -14 -10 -23 0 -61
-45 -61 -73 0 -17 5 -19 36 -14 20 3 51 17 69 31 29 23 35 36 64 155 17 71 31
134 31 140 0 36 31 74 43 54z m-1513 -271 c0 -10 -6 -42 -14 -72 -21 -80 -46
-218 -46 -251 0 -38 12 -37 60 7 22 20 43 34 47 31 10 -10 -46 -76 -78 -93
-27 -13 -33 -14 -53 -1 -19 13 -24 13 -41 0 -11 -8 -33 -12 -48 -10 -16 2 -45
-4 -64 -14 -20 -10 -40 -16 -46 -12 -5 3 -27 0 -49 -8 -31 -10 -44 -10 -59 -1
-15 10 -24 9 -42 -2 -12 -8 -41 -18 -63 -22 -34 -5 -46 -2 -60 13 -19 18 -20
18 -50 -14 -22 -23 -41 -33 -61 -33 -90 0 -59 114 34 127 38 5 44 3 52 -18 6
-14 10 -18 10 -8 1 23 55 70 84 72 29 2 38 -16 10 -21 -41 -8 -69 -76 -36 -89
25 -10 100 35 123 74 24 42 44 35 35 -13 -7 -40 7 -45 35 -11 79 92 99 108
127 105 20 -2 28 -9 29 -23 4 -79 3 -76 23 -66 24 13 32 37 71 201 17 74 34
143 36 153 7 22 34 22 34 -1z m1249 -589 c-18 -32 -46 -78 -64 -103 -18 -25
-40 -70 -50 -100 -38 -119 -136 -243 -249 -315 -67 -43 -126 -69 -126 -56 0 5
33 38 74 75 41 36 98 94 128 128 l53 62 -75 -65 c-41 -35 -114 -93 -162 -127
-47 -35 -89 -70 -92 -78 -8 -21 -37 -17 -43 5 -5 18 -9 17 -58 -15 -91 -61
-182 -87 -322 -92 -77 -3 -123 -1 -123 5 0 6 53 23 117 38 65 15 133 34 153
41 l35 14 -35 -5 c-121 -20 -241 -35 -275 -35 -23 0 -46 -5 -52 -11 -17 -17
-46 -2 -40 20 4 16 -3 18 -82 17 -110 -1 -174 15 -287 70 -141 69 -164 107
-38 64 61 -21 206 -60 221 -60 4 1 -46 22 -112 49 -66 26 -136 56 -155 66 -19
10 -48 21 -65 25 -20 4 -30 12 -30 25 0 26 20 30 42 7 10 -11 32 -26 49 -35
50 -25 144 -66 144 -62 0 2 -20 15 -45 29 -74 44 -193 145 -256 218 -94 109
-69 99 49 -20 107 -109 180 -166 279 -216 l52 -26 -64 65 c-65 66 -149 191
-138 207 3 5 53 -37 111 -94 122 -119 252 -220 319 -250 37 -16 73 -21 192
-24 l146 -5 -74 21 c-108 29 -262 106 -246 122 3 3 63 -10 133 -28 149 -38
349 -68 409 -61 43 5 246 99 292 135 21 17 15 17 -50 -5 -83 -28 -279 -45
-279 -25 0 6 19 16 43 22 95 23 327 103 402 139 55 26 89 50 111 77 46 59 108
154 134 204 13 25 25 39 27 33 3 -7 -10 -39 -28 -70z"/>
</g>
</svg>
